<svg width="275" height="260" viewBox="0 0 275 260" fill="none" xmlns="http://www.w3.org/2000/svg">
<path fill-rule="evenodd" clip-rule="evenodd" d="M120.151 229.345C161.084 229.345 195.074 221.8 201.712 211.889C195.074 201.978 161.084 194.433 120.151 194.433C79.2179 194.433 45.2279 201.978 38.59 211.889C45.2279 221.8 79.2179 229.345 120.151 229.345Z" fill="#3A3D43"/>
<path d="M120.151 187.342C74.4576 187.342 37.416 196.745 37.416 208.344C37.416 209.552 37.818 210.736 38.59 211.889C45.2279 201.978 79.2179 194.433 120.151 194.433C161.084 194.433 195.074 201.978 201.712 211.889C202.483 210.736 202.885 209.552 202.885 208.344C202.885 196.745 165.844 187.342 120.151 187.342Z" fill="#B7BDC8"/>
<mask id="mask0_4886_19633" style="mask-type:alpha" maskUnits="userSpaceOnUse" x="6" y="4" width="252" height="226">
<path d="M125.829 6.49902C136.854 6.49902 150.511 10.8492 164.925 17.7227C179.297 24.5762 194.243 33.8514 207.796 43.5078C221.347 53.1635 233.462 63.1709 242.172 71.4648C246.531 75.6155 250.006 79.3072 252.377 82.291C253.564 83.785 254.445 85.0655 255.021 86.1094C255.462 86.9107 255.661 87.4647 255.737 87.8066L200.167 211.01C198.764 213.028 195.805 215.152 191.21 217.181C186.596 219.217 180.57 221.059 173.419 222.606C159.124 225.7 140.522 227.578 120.153 227.578C99.7841 227.578 81.1821 225.7 66.8867 222.606C59.7359 221.059 53.7104 219.217 49.0967 217.181C44.487 215.146 41.5222 213.015 40.125 210.991C40.1114 210.959 40.0948 210.919 40.0742 210.868C40.0002 210.687 39.8958 210.424 39.7627 210.078C39.4974 209.388 39.1279 208.402 38.668 207.158C37.7487 204.673 36.4766 201.179 34.9697 197.012C31.9562 188.678 28.0096 177.658 24.0869 166.637C20.1642 155.615 16.2665 144.593 13.3496 136.252C11.891 132.081 10.6787 128.584 9.83203 126.095C9.40838 124.849 9.0784 123.862 8.85547 123.172C8.74348 122.825 8.66229 122.564 8.61035 122.387C8.60745 122.377 8.60417 122.367 8.60156 122.358C8.64386 121.93 8.83802 121.144 9.30762 119.932C9.82339 118.6 10.6018 116.929 11.6318 114.954C13.6899 111.009 16.6984 105.961 20.4727 100.197C28.0185 88.6732 38.5655 74.3726 50.5352 60.4316C62.5109 46.4836 75.8683 32.9457 89.0322 22.9111C102.261 12.8269 115.014 6.49904 125.829 6.49902Z" fill="#CED4DF" stroke="#9096A2" stroke-width="3.54548" stroke-linecap="round"/>
</mask>
<g mask="url(#mask0_4886_19633)">
<path fill-rule="evenodd" clip-rule="evenodd" d="M165.904 40.7385C167.814 35.7215 172.504 31.6874 177.817 30.4913C180.251 29.9431 183.782 30.1459 186.247 30.9751C188.576 31.7589 191.725 33.8525 193.251 35.6324C194.639 37.2508 196.364 40.5974 196.803 42.5205C197.249 44.4778 197.187 48.3816 196.68 50.3308C195.669 54.21 192.684 58.2543 189.35 60.2611C186.142 62.1919 181.182 62.8893 177.25 61.9623C171.628 60.6371 166.93 55.9406 165.445 50.1609C164.807 47.6765 165.034 43.0254 165.904 40.7385ZM75.6123 52.1731C76.2049 50.8823 76.7959 50.2768 78.1722 49.5485C78.9753 49.1238 83.1726 49.0834 120.742 49.1401L162.42 49.2031L163.259 51.8126C164.856 56.777 168.337 60.8311 172.846 62.9766C174.191 63.6169 175.96 64.2929 176.777 64.4788C178.695 64.9154 182.219 65.012 184.573 64.6924L186.43 64.4405V89.324C186.43 114.074 186.426 114.215 185.8 115.509C185.42 116.293 184.691 117.128 183.965 117.608L182.761 118.405H169.226H155.69L155.492 116.614C154.571 108.268 145.906 103.411 138.482 107.081C135.741 108.435 133.838 110.438 130.86 115.102L128.663 118.543L104.076 118.548C82.6148 118.553 79.3507 118.495 78.3962 118.096C76.9236 117.481 76.2613 116.848 75.6123 115.435C75.0941 114.306 75.0668 112.716 75.0668 83.8039C75.0668 54.8919 75.0941 53.3014 75.6123 52.1731ZM155.857 125.492C154.966 125.314 154.97 125.399 155.71 121.889L155.853 121.214L161.999 121.295L168.145 121.375L168.978 123.008C170.923 126.824 170.78 130.617 168.516 135.264C165.291 141.883 158.701 146.929 154.007 146.373C151.039 146.021 148.938 144.184 148.551 141.602C148.39 140.527 148.501 140.114 149.324 138.731C149.853 137.843 151.083 135.512 152.058 133.552C153.465 130.721 154.165 129.675 155.46 128.467C156.784 127.233 157.053 126.826 156.887 126.302C156.763 125.913 156.354 125.591 155.857 125.492ZM159.751 148.057C163.033 146.502 166.717 143.37 168.864 140.309C169.236 139.778 169.649 139.343 169.781 139.343C169.913 139.343 170.318 140.033 170.681 140.876C171.223 142.137 171.321 142.834 171.237 144.818C171.091 148.247 169.913 150.571 166.705 153.762C162.902 157.546 158.706 159.307 155.141 158.616C154.463 158.485 153.802 158.372 153.672 158.365C153.543 158.358 152.776 157.734 151.968 156.978C149.863 155.009 149.378 152.792 150.451 150.036C150.859 148.986 151.094 148.725 151.548 148.821C151.866 148.889 153.396 148.956 154.947 148.97C157.527 148.994 157.939 148.916 159.751 148.057ZM155.643 161.513C159.759 161.86 164.684 159.809 168.274 156.252C169.357 155.179 170.317 154.277 170.407 154.247C170.497 154.218 170.814 154.87 171.112 155.696C173.026 161.019 167.636 168.304 160.761 169.684C155.816 170.677 151.675 166.616 153.192 162.263L153.516 161.334L155.643 161.513Z" fill="#8996AD"/>
<path fill-rule="evenodd" clip-rule="evenodd" d="M177.817 30.4913C172.504 31.6874 167.814 35.7215 165.904 40.7385C165.034 43.0254 164.807 47.6765 165.445 50.1609C166.93 55.9406 171.628 60.6371 177.25 61.9623C181.182 62.8893 186.142 62.1919 189.35 60.2611C192.684 58.2543 195.669 54.21 196.68 50.3308C197.187 48.3816 197.249 44.4778 196.803 42.5205C196.364 40.5974 194.639 37.2508 193.251 35.6324C191.725 33.8525 188.576 31.7589 186.247 30.9751C183.782 30.1459 180.251 29.9431 177.817 30.4913ZM78.1722 49.5485C76.7959 50.2768 76.2049 50.8823 75.6123 52.1731C75.0941 53.3014 75.0668 54.8919 75.0668 83.8039C75.0668 112.716 75.0941 114.306 75.6123 115.435C76.2613 116.848 76.9236 117.481 78.3962 118.096C79.3507 118.495 82.6148 118.553 104.076 118.548L128.663 118.543L130.86 115.102C133.838 110.438 135.741 108.435 138.482 107.081C145.906 103.411 154.571 108.268 155.492 116.614L155.69 118.405H169.226H182.761L183.965 117.608C184.691 117.128 185.42 116.293 185.8 115.509C186.426 114.215 186.43 114.074 186.43 89.324V64.4405L184.573 64.6924C182.219 65.012 178.695 64.9154 176.777 64.4788C175.96 64.2929 174.191 63.6169 172.846 62.9766C168.337 60.8311 164.856 56.777 163.259 51.8126L162.42 49.2031L120.742 49.1401C83.1726 49.0834 78.9753 49.1238 78.1722 49.5485Z" fill="white"/>
<path d="M155.71 121.889C154.97 125.399 154.966 125.314 155.857 125.492C156.354 125.591 156.763 125.913 156.887 126.302C157.053 126.826 156.784 127.233 155.46 128.467C154.165 129.675 153.465 130.721 152.058 133.552C151.083 135.512 149.853 137.843 149.324 138.731C148.501 140.114 148.39 140.527 148.551 141.602C148.938 144.184 151.039 146.021 154.007 146.373C158.701 146.929 165.291 141.883 168.516 135.264C170.78 130.617 170.923 126.824 168.978 123.008L168.145 121.375L161.999 121.295L155.853 121.214L155.71 121.889Z" fill="#CED4DF"/>
<path d="M168.864 140.309C166.717 143.37 163.033 146.502 159.751 148.057C157.939 148.916 157.527 148.994 154.947 148.97C153.396 148.956 151.866 148.889 151.548 148.821C151.094 148.725 150.859 148.986 150.451 150.036C149.378 152.792 149.863 155.009 151.968 156.978C152.776 157.734 153.543 158.358 153.672 158.365C153.802 158.372 154.463 158.485 155.141 158.616C158.706 159.307 162.902 157.546 166.705 153.762C169.913 150.571 171.091 148.247 171.237 144.818C171.321 142.834 171.223 142.137 170.681 140.876C170.318 140.033 169.913 139.343 169.781 139.343C169.649 139.343 169.236 139.778 168.864 140.309Z" fill="#CED4DF"/>
<path d="M168.274 156.252C164.684 159.809 159.759 161.86 155.643 161.513L153.516 161.334L153.192 162.263C151.675 166.616 155.816 170.677 160.761 169.684C167.636 168.304 173.026 161.019 171.112 155.696C170.814 154.87 170.497 154.218 170.407 154.247C170.317 154.277 169.357 155.179 168.274 156.252Z" fill="#CED4DF"/>
<path fill-rule="evenodd" clip-rule="evenodd" d="M176.763 28.085C171.557 29.3496 166.768 33.2095 164.252 38.1683C163.374 39.8989 162.372 43.6649 162.372 45.2369V46.3735L120.272 46.452L78.1722 46.5301L76.9685 47.1746C75.4609 47.9815 74.0047 49.4431 73.1713 50.9851L72.5292 52.1731L72.4496 83.2589C72.3706 114.085 72.375 114.358 72.986 115.991C73.4267 117.168 74.0281 118.02 75.0991 118.983C77.5815 121.215 77.6712 121.226 93.1281 121.226H106.64L106.038 121.895C104.855 122.906 101.594 127.612 100.112 129.839C100.065 129.839 99.6921 130.411 99.2829 131.109C96.7144 135.492 94.6072 141.338 93.5855 146.917C92.9288 150.503 92.8397 159.853 93.4272 163.549C93.6348 164.856 94.2116 168.398 94.7084 171.42C95.4456 175.9 95.6158 177.819 95.6309 181.815C95.6511 187.197 95.5891 187.835 93.4322 204.387C92.6125 210.676 91.7458 217.352 91.5062 219.223C91.2668 221.094 91.0268 222.668 90.9733 222.722L88.1845 236.801C90.0824 236.979 89.3694 236.874 91.2383 237.249C91.9951 227.182 93.9683 223.162 95.2499 213.149C95.5843 210.535 96.4031 204.187 97.0696 199.041C98.0153 191.741 98.3135 188.348 98.4272 183.597C98.5808 177.173 98.5998 177.377 96.8439 166.668C95.7987 160.292 95.6681 151.626 96.5463 146.917C97.2422 143.188 98.9787 137.831 100.58 134.477C102.04 131.525 105.831 124.961 109.307 122.323L110.646 121.226H118.54C123.467 121.226 126.435 121.335 126.435 121.516C126.435 121.918 123.323 125.487 121.21 127.508C120.245 128.431 117.418 130.813 114.926 132.802C110.199 136.576 109.755 137.174 110.864 138.283C111.57 138.989 112.073 138.858 113.448 137.607C114.139 136.979 116.241 135.283 118.119 133.839C124.371 129.031 128.056 124.826 133.071 116.775C136.335 111.537 138.655 109.48 142.142 108.732C145.294 108.056 149.141 109.638 151.033 112.387C153.367 115.78 153.479 121.236 151.347 127.756C150.38 130.714 147.502 136.498 145.434 139.64C143.369 142.778 142.323 144.137 139.566 147.267L137.687 149.398L138.722 152.464C140.097 156.537 140.525 159.447 140.301 163.196C140.023 167.853 138.507 172.557 136.182 175.981C134.842 177.953 134.818 178.998 136.104 179.321C137.084 179.567 137.762 178.942 139.217 176.45C143.553 169.026 144.447 159.434 141.532 151.611L140.957 150.067L142.791 147.898C143.799 146.705 144.909 145.296 145.257 144.767C146.034 143.585 146.202 143.572 146.761 144.654C147.005 145.124 147.55 145.92 147.973 146.423C148.686 147.27 148.709 147.386 148.292 148.022C148.045 148.399 147.629 149.544 147.366 150.568C146.574 153.66 147.489 156.773 149.866 159.073C150.666 159.848 150.979 160.35 150.797 160.57C150.646 160.752 150.377 161.55 150.199 162.345C149.251 166.576 152.637 171.648 156.778 172.197C157.653 172.313 158.333 172.571 158.43 172.823C158.784 173.746 157.565 178.443 156.25 181.221C153.922 186.141 150.26 190.133 145.66 192.765C144.762 193.279 143.889 193.866 143.719 194.071C143.442 194.405 143.114 196.639 142.161 204.684C141.292 212.018 140.218 230.375 140.619 237.749C141.832 237.555 143.725 237.252 143.725 237.252L143.964 222.251C144.001 216.76 144.85 205.98 145.927 197.324L146.122 195.756L148.679 194.09C155.669 189.535 160.425 181.964 161.379 173.871C161.56 172.343 161.587 172.305 162.785 171.987C166.397 171.026 170.819 167.563 172.58 164.317C174.673 160.457 174.746 156.143 172.774 152.801L172.136 151.72L172.875 150.061C174.807 145.726 174.501 141.249 172.015 137.493L171.235 136.314L171.822 134.933C173.35 131.335 173.474 126.411 172.12 123.104L171.369 121.27L177.192 121.174C182.86 121.08 183.055 121.056 184.54 120.273C185.38 119.83 186.552 118.9 187.146 118.207C189.165 115.848 189.103 116.785 189.103 88.5762L189.104 63.1622L190.699 62.3288C192.657 61.3057 195.743 58.2804 197.069 56.0849C199.591 51.9055 200.445 46.242 199.224 41.7914C198.252 38.2493 196.725 35.6027 194.154 33.001C191.72 30.5385 188.972 28.9523 185.699 28.1203C183.592 27.5849 178.899 27.5661 176.763 28.085ZM165.904 40.7385C167.814 35.7215 172.504 31.6874 177.817 30.4913C180.251 29.9431 183.782 30.1459 186.247 30.9751C188.576 31.7589 191.725 33.8525 193.251 35.6324C194.639 37.2508 196.364 40.5974 196.803 42.5205C197.249 44.4778 197.187 48.3816 196.68 50.3308C195.669 54.21 192.684 58.2543 189.35 60.2611C186.142 62.1919 181.182 62.8893 177.25 61.9623C171.628 60.6371 166.93 55.9406 165.445 50.1609C164.807 47.6765 165.034 43.0254 165.904 40.7385ZM75.6123 52.1731C76.2049 50.8823 76.7959 50.2768 78.1722 49.5485C78.9753 49.1238 83.1726 49.0834 120.742 49.1401L162.42 49.2031L163.259 51.8126C164.856 56.777 168.337 60.8311 172.846 62.9766C174.191 63.6169 175.96 64.2929 176.777 64.4788C178.695 64.9154 182.219 65.012 184.573 64.6924L186.43 64.4405V89.324C186.43 114.074 186.426 114.215 185.8 115.509C185.42 116.293 184.691 117.128 183.965 117.608L182.761 118.405H169.226H155.69L155.492 116.614C154.571 108.268 145.906 103.411 138.482 107.081C135.741 108.435 133.838 110.438 130.86 115.102L128.663 118.543L104.076 118.548C82.6148 118.553 79.3507 118.495 78.3962 118.096C76.9236 117.481 76.2613 116.848 75.6123 115.435C75.0941 114.306 75.0668 112.716 75.0668 83.8039C75.0668 54.8919 75.0941 53.3014 75.6123 52.1731ZM155.857 125.492C154.966 125.314 154.97 125.399 155.71 121.889L155.853 121.214L161.999 121.295L168.145 121.375L168.978 123.008C170.923 126.824 170.78 130.617 168.516 135.264C165.291 141.883 158.701 146.929 154.007 146.373C151.039 146.021 148.938 144.184 148.551 141.602C148.39 140.527 148.501 140.114 149.324 138.731C149.853 137.843 151.083 135.512 152.058 133.552C153.465 130.721 154.165 129.675 155.46 128.467C156.784 127.233 157.053 126.826 156.887 126.302C156.763 125.913 156.354 125.591 155.857 125.492ZM159.751 148.057C163.033 146.502 166.717 143.37 168.864 140.309C169.236 139.778 169.649 139.343 169.781 139.343C169.913 139.343 170.318 140.033 170.681 140.876C171.223 142.137 171.321 142.834 171.237 144.818C171.091 148.247 169.913 150.571 166.705 153.762C162.902 157.546 158.706 159.307 155.141 158.616C154.463 158.485 153.802 158.372 153.672 158.365C153.543 158.358 152.776 157.734 151.968 156.978C149.863 155.009 149.378 152.792 150.451 150.036C150.859 148.986 151.094 148.725 151.548 148.821C151.866 148.889 153.396 148.956 154.947 148.97C157.527 148.994 157.939 148.916 159.751 148.057ZM155.643 161.513C159.759 161.86 164.684 159.809 168.274 156.252C169.357 155.179 170.317 154.277 170.407 154.247C170.497 154.218 170.814 154.87 171.112 155.696C173.026 161.019 167.636 168.304 160.761 169.684C155.816 170.677 151.675 166.616 153.192 162.263L153.516 161.334L155.643 161.513Z" fill="#8996AD"/>
<path d="M110.646 121.226L109.307 122.323C105.831 124.961 102.04 131.525 100.58 134.477C98.9787 137.831 97.2422 143.188 96.5463 146.917C95.6681 151.626 95.7987 160.292 96.8439 166.668C98.5998 177.377 98.5808 177.173 98.4272 183.597C98.3135 188.348 98.0153 191.741 97.0696 199.041C96.4031 204.187 95.5843 210.535 95.2499 213.149C93.9683 223.162 91.9951 227.182 91.2383 237.249C110.559 239.458 121.258 239.566 140.619 237.749C140.218 230.375 141.292 212.018 142.161 204.684C143.114 196.639 143.442 194.405 143.719 194.071C143.889 193.866 144.762 193.279 145.66 192.765C150.26 190.133 153.922 186.141 156.25 181.221C157.565 178.443 158.784 173.746 158.43 172.823C158.333 172.571 157.653 172.313 156.778 172.197C152.637 171.648 149.251 166.576 150.199 162.345C150.377 161.55 150.646 160.752 150.797 160.57C150.979 160.35 150.666 159.848 149.866 159.073C147.489 156.773 146.574 153.66 147.366 150.568C147.629 149.544 148.045 148.399 148.292 148.022C148.709 147.386 148.686 147.27 147.973 146.423C147.55 145.92 147.005 145.124 146.761 144.654C146.202 143.572 146.034 143.585 145.257 144.767C144.909 145.296 143.799 146.705 142.791 147.898L140.957 150.067L141.532 151.611C144.447 159.434 143.553 169.026 139.217 176.45C137.762 178.942 137.084 179.567 136.104 179.321C134.818 178.998 134.842 177.953 136.182 175.981C138.507 172.557 140.023 167.853 140.301 163.196C140.525 159.447 140.097 156.537 138.722 152.464L137.687 149.398L139.566 147.267C142.323 144.137 143.369 142.778 145.434 139.64C147.502 136.498 150.38 130.714 151.347 127.756C153.479 121.236 153.367 115.78 151.033 112.387C149.141 109.638 145.294 108.056 142.142 108.732C138.655 109.48 136.335 111.537 133.071 116.775C128.056 124.826 124.371 129.031 118.119 133.839C116.241 135.283 114.139 136.979 113.448 137.607C112.073 138.858 111.57 138.989 110.864 138.283C109.755 137.174 110.199 136.576 114.926 132.802C117.418 130.813 120.245 128.431 121.21 127.508C123.323 125.487 126.435 121.918 126.435 121.516C126.435 121.335 123.467 121.226 118.54 121.226H110.646Z" fill="#CED4DF"/>
</g>
<path fill-rule="evenodd" clip-rule="evenodd" d="M181.306 38.8418L174.624 45.5237V52.8419C174.624 53.5448 175.193 54.1146 175.896 54.1146H179.079C179.202 53.0035 179.203 51.583 179.172 50.4346C179.143 49.3272 180.021 48.3873 181.129 48.3873H181.483C182.591 48.3873 183.469 49.3272 183.439 50.4346C183.409 51.583 183.41 53.0035 183.533 54.1146H186.716C187.419 54.1146 187.988 53.5448 187.988 52.8419V45.5237L181.306 38.8418Z" fill="#A8B2C6"/>
<path d="M173.033 47.1146L174.624 45.5237L181.306 38.8418L187.988 45.5237L189.579 47.1146" stroke="#8290AD" stroke-width="2.54547" stroke-linecap="round" stroke-linejoin="round"/>
<circle opacity="0.3" cx="65.3233" cy="36.9815" r="5.59476" fill="#BBC3D1"/>
<circle opacity="0.5" cx="241.275" cy="74.1751" r="9.78054" fill="#BBC3D1"/>
<path opacity="0.5" d="M27.629 125.822L29.3592 133.996L37.4162 135.751L29.3592 137.507L27.629 145.68L25.8989 137.507L17.8418 135.751L25.8989 133.996L27.629 125.822Z" fill="#BBC3D1"/>
<path opacity="0.5" d="M239.867 164.17L249.079 162.192L251.057 152.98L253.035 162.192L262.246 164.17L253.035 166.148L251.057 175.359L249.079 166.148L239.867 164.17Z" fill="#BBC3D1"/>
<path d="M115.917 80.5961C115.917 87.5893 105.719 98.2352 101.751 102.113C100.878 102.966 99.5156 102.966 98.6432 102.113C94.6748 98.2352 84.4766 87.5893 84.4766 80.5961C84.4766 71.9136 91.5148 64.875 100.197 64.875C108.879 64.875 115.917 71.9136 115.917 80.5961Z" fill="#CED4DF"/>
<circle cx="100.199" cy="78.7852" r="6.50005" fill="white"/>
<rect x="123.008" y="70.7031" width="50.0245" height="6.98017" rx="3.49008" fill="#8996AD"/>
<rect x="123.008" y="83.5918" width="50.0245" height="4.13178" rx="2.06589" fill="#CED4DF"/>
<rect x="123.008" y="93.6328" width="32.1125" height="4.13178" rx="2.06589" fill="#CED4DF"/>
</svg>
