<svg width="443" height="420" viewBox="0 0 443 420" fill="none" xmlns="http://www.w3.org/2000/svg">
<g clip-path="url(#clip0_4886_22006)">
<path fill-rule="evenodd" clip-rule="evenodd" d="M213.184 370.481C279.306 370.481 334.213 358.292 344.936 342.282C334.213 326.273 279.306 314.084 213.184 314.084C147.061 314.084 92.1544 326.273 81.4316 342.282C92.1544 358.292 147.061 370.481 213.184 370.481Z" fill="#3A3D43"/>
<path d="M213.184 302.629C139.372 302.629 79.5352 317.818 79.5352 336.555C79.5352 338.507 80.1846 340.42 81.4316 342.282C92.1544 326.273 147.061 314.084 213.184 314.084C279.306 314.084 334.213 326.273 344.936 342.282C346.183 340.42 346.832 338.507 346.832 336.555C346.832 317.818 286.996 302.629 213.184 302.629Z" fill="#B7BDC8"/>
<mask id="mask0_4886_22006" style="mask-type:alpha" maskUnits="userSpaceOnUse" x="30" y="7" width="406" height="364">
<path d="M222.354 10.498C240.164 10.4981 262.224 17.5257 285.508 28.6289C308.724 39.7 332.87 54.6832 354.763 70.2822C376.654 85.8799 396.224 102.044 410.293 115.442C417.334 122.147 422.947 128.112 426.777 132.932C428.695 135.345 430.119 137.413 431.049 139.1C431.763 140.396 432.085 141.291 432.207 141.843L342.434 340.875C340.164 344.131 335.384 347.557 327.97 350.83C320.517 354.12 310.782 357.094 299.23 359.594C276.138 364.59 246.09 367.625 213.186 367.625C180.282 367.625 150.233 364.59 127.141 359.594C115.589 357.094 105.854 354.12 98.4014 350.83C90.9642 347.547 86.1766 344.11 83.916 340.845C83.8931 340.791 83.8626 340.721 83.8262 340.632C83.7066 340.34 83.5392 339.915 83.3242 339.355C82.8956 338.241 82.2986 336.648 81.5557 334.639C80.0707 330.623 78.0152 324.981 75.5811 318.249C70.7131 304.786 64.3386 286.986 58.002 269.182C51.6653 251.377 45.3681 233.573 40.6562 220.1C38.2999 213.362 36.3423 207.713 34.9746 203.691C34.2901 201.679 33.7566 200.084 33.3965 198.969C33.2156 198.409 33.0849 197.987 33.001 197.701C32.9962 197.685 32.9916 197.669 32.9873 197.654C33.0559 196.962 33.3689 195.693 34.127 193.736C34.9601 191.586 36.2169 188.884 37.8809 185.694C41.2053 179.322 46.0662 171.169 52.1631 161.857C64.3525 143.242 81.389 120.14 100.725 97.6201C120.07 75.0886 141.648 53.2205 162.913 37.0107C184.283 20.7205 204.884 10.498 222.354 10.498Z" fill="#CED4DF" stroke="#9096A2" stroke-width="5.72732" stroke-linecap="round"/>
</mask>
<g mask="url(#mask0_4886_22006)">
<path fill-rule="evenodd" clip-rule="evenodd" d="M107.123 259.387C131.118 259.387 150.57 244.501 150.57 226.138H63.6758C63.6758 244.501 83.1277 259.387 107.123 259.387Z" fill="#CED4DF"/>
<path d="M63.6758 226.138L107.123 125.092L150.57 226.138C150.57 244.501 131.118 259.387 107.123 259.387C83.1277 259.387 63.6758 244.501 63.6758 226.138ZM150.57 226.138H63.6758" stroke="#8996AD" stroke-width="5.72732"/>
<path fill-rule="evenodd" clip-rule="evenodd" d="M326.183 298.912C345.81 298.912 361.721 286.736 361.721 271.715H290.645C290.645 286.736 306.556 298.912 326.183 298.912Z" fill="#CED4DF"/>
<path d="M290.645 271.715L326.183 189.062L361.721 271.715C361.721 286.736 345.81 298.912 326.183 298.912C306.556 298.912 290.645 286.736 290.645 271.715ZM361.721 271.715H290.645" stroke="#8996AD" stroke-width="5.72732"/>
<rect x="100.852" y="115.812" width="249.805" height="15.1386" rx="7.56931" transform="rotate(16.792 100.852 115.812)" fill="#CED4DF" stroke="#8996AD" stroke-width="5.72732" stroke-linecap="round"/>
<rect x="201.262" y="141.602" width="33.1073" height="264.739" rx="16.5537" fill="#CED4DF" stroke="#8996AD" stroke-width="5.72732" stroke-linecap="round"/>
<rect x="210.777" y="153.004" width="14.0797" height="14.0797" rx="7.03983" fill="#8996AD"/>
<rect x="105.457" y="123.766" width="4" height="4" rx="2" fill="#8996AD"/>
<rect x="327.457" y="190.766" width="4" height="4" rx="2" fill="#8996AD"/>
</g>
<circle opacity="0.3" cx="124.612" cy="59.7389" r="9.03768" fill="#BBC3D1"/>
<circle opacity="0.5" cx="408.842" cy="119.821" r="15.7993" fill="#BBC3D1"/>
<path opacity="0.5" d="M19.0914 270.551L21.8862 283.755L34.9015 286.59L21.8862 289.425L19.0914 302.629L16.2965 289.425L3.28125 286.59L16.2965 283.755L19.0914 270.551Z" fill="#BBC3D1"/>
<path opacity="0.5" d="M406.57 265.198L421.45 262.003L424.646 247.123L427.841 262.003L442.721 265.198L427.841 268.393L424.646 283.273L421.45 268.393L406.57 265.198Z" fill="#BBC3D1"/>
</g>
<defs>
<clipPath id="clip0_4886_22006">
<rect width="442.913" height="420" fill="white"/>
</clipPath>
</defs>
</svg>
