<svg width="24" height="24" viewBox="0 0 24 24" fill="none" xmlns="http://www.w3.org/2000/svg">
<path d="M9.175 16.0001H3C2.71667 16.0001 2.47934 15.9041 2.288 15.7121C2.09667 15.5201 2.00067 15.2828 2 15.0001C1.99934 14.7175 2.09534 14.4801 2.288 14.2881C2.48067 14.0961 2.718 14.0001 3 14.0001H9.175L7.3 12.1251C7.11667 11.9418 7.025 11.7128 7.025 11.4381C7.025 11.1635 7.11667 10.9258 7.3 10.7251C7.5 10.5251 7.73767 10.4251 8.013 10.4251C8.28834 10.4251 8.52567 10.5251 8.725 10.7251L12.3 14.3001C12.4 14.4001 12.471 14.5085 12.513 14.6251C12.555 14.7418 12.5757 14.8668 12.575 15.0001C12.5743 15.1335 12.5537 15.2585 12.513 15.3751C12.4723 15.4918 12.4013 15.6001 12.3 15.7001L8.7 19.3001C8.5 19.5001 8.26667 19.5961 8 19.5881C7.73334 19.5801 7.5 19.4758 7.3 19.2751C7.11667 19.0751 7.021 18.8418 7.013 18.5751C7.005 18.3085 7.10067 18.0751 7.3 17.8751L9.175 16.0001ZM14.825 10.0001L16.7 11.8751C16.8833 12.0585 16.975 12.2878 16.975 12.5631C16.975 12.8385 16.8833 13.0758 16.7 13.2751C16.5 13.4751 16.2627 13.5751 15.988 13.5751C15.7133 13.5751 15.4757 13.4751 15.275 13.2751L11.7 9.70014C11.6 9.60014 11.5293 9.4918 11.488 9.37514C11.4467 9.25847 11.4257 9.13347 11.425 9.00014C11.4243 8.8668 11.4453 8.7418 11.488 8.62514C11.5307 8.50847 11.6013 8.40014 11.7 8.30014L15.3 4.70014C15.5 4.50014 15.7333 4.40447 16 4.41314C16.2667 4.4218 16.5 4.5258 16.7 4.72514C16.8833 4.92514 16.9793 5.15847 16.988 5.42514C16.9967 5.6918 16.9007 5.92514 16.7 6.12514L14.825 8.00014H21C21.2833 8.00014 21.521 8.09614 21.713 8.28814C21.905 8.48014 22.0007 8.71747 22 9.00014C21.9993 9.2828 21.9033 9.52047 21.712 9.71314C21.5207 9.9058 21.2833 10.0015 21 10.0001H14.825Z" fill="black"/>
</svg>
