<svg width="24" height="24" viewBox="0 0 24 24" fill="none" xmlns="http://www.w3.org/2000/svg">
<path fill-rule="evenodd" clip-rule="evenodd" d="M5.624 4.42407C3.965 5.18207 2.75 6.98607 2.75 9.13707C2.75 11.3341 3.65 13.0281 4.938 14.4801C6.001 15.6761 7.287 16.6681 8.541 17.6341C8.83967 17.8641 9.13467 18.0934 9.426 18.3221C9.952 18.7371 10.421 19.1001 10.874 19.3651C11.327 19.6301 11.69 19.7501 12 19.7501C12.31 19.7501 12.674 19.6301 13.126 19.3651C13.579 19.1001 14.048 18.7371 14.574 18.3221C14.8653 18.0927 15.1603 17.8637 15.459 17.6351C16.713 16.6671 17.999 15.6761 19.062 14.4801C20.351 13.0281 21.25 11.3341 21.25 9.13707C21.25 6.98707 20.035 5.18207 18.376 4.42407C16.764 3.68707 14.598 3.88207 12.54 6.02107C12.47 6.09366 12.3862 6.15139 12.2934 6.19083C12.2006 6.23026 12.1008 6.25059 12 6.25059C11.8992 6.25059 11.7994 6.23026 11.7066 6.19083C11.6138 6.15139 11.53 6.09366 11.46 6.02107C9.402 3.88207 7.236 3.68707 5.624 4.42407ZM12 4.46007C9.688 2.39007 7.099 2.10007 5 3.05907C2.786 4.07407 1.25 6.42607 1.25 9.13807C1.25 11.8031 2.36 13.8371 3.817 15.4771C4.983 16.7901 6.41 17.8891 7.671 18.8591C7.95767 19.0791 8.233 19.2931 8.497 19.5011C9.01 19.9051 9.56 20.3351 10.117 20.6611C10.674 20.9871 11.31 21.2511 12 21.2511C12.69 21.2511 13.326 20.9861 13.883 20.6611C14.441 20.3351 14.99 19.9051 15.503 19.5011C15.767 19.2931 16.0423 19.0791 16.329 18.8591C17.589 17.8891 19.017 16.7891 20.183 15.4771C21.64 13.8371 22.75 11.8031 22.75 9.13807C22.75 6.42607 21.215 4.07407 19 3.06107C16.901 2.10107 14.312 2.39107 12 4.46007Z" fill="black"/>
</svg>
