<svg width="24" height="24" viewBox="0 0 24 24" fill="none" xmlns="http://www.w3.org/2000/svg">
<path d="M12 20L11.525 20.5804L12 20.9691L12.475 20.5804L12 20ZM16.9497 15.9497L17.4247 16.5302L17.4536 16.5065L17.4801 16.4801L16.9497 15.9497ZM7.05025 15.9497L6.51992 16.4801L6.54636 16.5065L6.57529 16.5302L7.05025 15.9497ZM12 20L12.475 19.4196L7.52521 15.3693L7.05025 15.9497L6.57529 16.5302L11.525 20.5804L12 20ZM16.9497 15.9497L16.4748 15.3693L11.525 19.4196L12 20L12.475 20.5804L17.4247 16.5302L16.9497 15.9497ZM16.9497 6.05025L16.4194 6.58058C18.8602 9.02136 18.8602 12.9786 16.4194 15.4194L16.9497 15.9497L17.4801 16.4801C20.5066 13.4535 20.5066 8.54649 17.4801 5.51992L16.9497 6.05025ZM7.05025 6.05025L7.58058 6.58058C10.0214 4.13981 13.9786 4.13981 16.4194 6.58058L16.9497 6.05025L17.4801 5.51992C14.4535 2.49336 9.54649 2.49336 6.51992 5.51992L7.05025 6.05025ZM7.05025 15.9497L7.58058 15.4194C5.13981 12.9786 5.13981 9.02136 7.58058 6.58058L7.05025 6.05025L6.51992 5.51992C3.49336 8.54649 3.49336 13.4535 6.51992 16.4801L7.05025 15.9497ZM12 13V12.25C11.3096 12.25 10.75 11.6904 10.75 11H10H9.25C9.25 12.5188 10.4812 13.75 12 13.75V13ZM14 11H13.25C13.25 11.6904 12.6904 12.25 12 12.25V13V13.75C13.5188 13.75 14.75 12.5188 14.75 11H14ZM12 9V9.75C12.6904 9.75 13.25 10.3096 13.25 11H14H14.75C14.75 9.48122 13.5188 8.25 12 8.25V9ZM12 9V8.25C10.4812 8.25 9.25 9.48122 9.25 11H10H10.75C10.75 10.3096 11.3096 9.75 12 9.75V9Z" fill="black"/>
</svg>
