<svg width="275" height="260" viewBox="0 0 275 260" fill="none" xmlns="http://www.w3.org/2000/svg">
<path fill-rule="evenodd" clip-rule="evenodd" d="M120.151 229.345C161.084 229.345 195.074 221.8 201.712 211.889C195.074 201.978 161.084 194.433 120.151 194.433C79.2179 194.433 45.2279 201.978 38.59 211.889C45.2279 221.8 79.2179 229.345 120.151 229.345Z" fill="#3A3D43"/>
<path d="M120.151 187.342C74.4576 187.342 37.416 196.745 37.416 208.344C37.416 209.552 37.818 210.736 38.59 211.889C45.2279 201.978 79.2179 194.433 120.151 194.433C161.084 194.433 195.074 201.978 201.712 211.889C202.483 210.736 202.885 209.552 202.885 208.344C202.885 196.745 165.844 187.342 120.151 187.342Z" fill="#B7BDC8"/>
<mask id="mask0_4886_19575" style="mask-type:alpha" maskUnits="userSpaceOnUse" x="6" y="4" width="252" height="226">
<path d="M125.829 6.49902C136.854 6.49902 150.511 10.8492 164.925 17.7227C179.297 24.5762 194.243 33.8514 207.796 43.5078C221.347 53.1635 233.462 63.1709 242.172 71.4648C246.531 75.6155 250.006 79.3072 252.377 82.291C253.564 83.785 254.445 85.0655 255.021 86.1094C255.462 86.9107 255.661 87.4647 255.737 87.8066L200.167 211.01C198.764 213.028 195.805 215.152 191.21 217.181C186.596 219.217 180.57 221.059 173.419 222.606C159.124 225.7 140.522 227.578 120.153 227.578C99.7841 227.578 81.1821 225.7 66.8867 222.606C59.7359 221.059 53.7104 219.217 49.0967 217.181C44.487 215.146 41.5222 213.015 40.125 210.991C40.1114 210.959 40.0948 210.919 40.0742 210.868C40.0002 210.687 39.8958 210.424 39.7627 210.078C39.4974 209.388 39.1279 208.402 38.668 207.158C37.7487 204.673 36.4766 201.179 34.9697 197.012C31.9562 188.678 28.0096 177.658 24.0869 166.637C20.1642 155.615 16.2665 144.593 13.3496 136.252C11.891 132.081 10.6787 128.584 9.83203 126.095C9.40838 124.849 9.0784 123.862 8.85547 123.172C8.74348 122.825 8.66229 122.564 8.61035 122.387C8.60745 122.377 8.60417 122.367 8.60156 122.358C8.64386 121.93 8.83802 121.144 9.30762 119.932C9.82339 118.6 10.6018 116.929 11.6318 114.954C13.6899 111.009 16.6984 105.961 20.4727 100.197C28.0185 88.6732 38.5655 74.3726 50.5352 60.4316C62.5109 46.4836 75.8683 32.9457 89.0322 22.9111C102.261 12.8269 115.014 6.49904 125.829 6.49902Z" fill="#CED4DF" stroke="#9096A2" stroke-width="3.54548" stroke-linecap="round"/>
</mask>
<g mask="url(#mask0_4886_19575)">
<path fill-rule="evenodd" clip-rule="evenodd" d="M91.1771 24.2199C89.3599 24.86 87.5883 26.5126 86.62 28.4711L85.7702 30.1897V142.783L86.4386 144.024C87.8707 146.683 90.2864 148.298 93.2306 148.563C94.1986 148.65 94.9907 148.813 94.9907 148.925C94.9907 149.037 94.3226 151.147 93.506 153.613C92.6892 156.079 91.6066 159.785 91.1 161.849C89.1882 169.639 85.8095 187.237 83.8085 199.831C83.2837 203.133 82.6601 206.984 82.4228 208.388C82.1857 209.791 81.7667 212.375 81.4916 214.129L80.9919 217.317L77.4395 246.041C78.4386 246.154 79.4487 246.262 80.4692 246.364C80.6523 245.073 81.0111 242.1 81.3904 238.691C83.827 216.793 87.1276 195.597 91.5323 173.559C93.7512 162.457 96.2525 153.512 98.165 149.839L98.6338 148.938H135.58L135.409 150.204C135.194 151.793 136.045 154.321 137.328 155.906L138.251 157.047L137.502 158.022C134.877 161.44 134.909 165.617 137.586 168.981C140.144 172.195 144.274 173.843 150.381 174.085C153.629 174.215 154.347 174.161 154.991 173.742C155.411 173.468 155.755 172.994 155.755 172.688C155.755 171.581 154.937 171.325 151.223 171.272C147.448 171.219 145.23 170.755 142.769 169.506C136.671 166.41 137.194 160.04 143.814 156.792C152.129 152.712 163.451 154.807 168.922 161.439C170.081 162.843 170.965 163.071 171.564 162.121C172.114 161.25 171.478 160.029 169.416 158C165.798 154.438 161.52 152.535 155.723 151.908C151.134 151.413 145.145 152.476 141.907 154.361C140.464 155.202 140.156 155.105 139.221 153.521C138.159 151.72 138.088 149.392 139.04 147.58C141.088 143.683 147.079 140.751 154.652 139.94C163.936 138.946 172.768 142.845 177.525 150.038C183.653 159.303 181.981 169.304 172.563 179.715C163.869 189.324 148.773 196.533 134.846 197.727C132.065 197.965 131.233 198.557 131.836 199.87L132.197 200.658L135.511 200.522C137.334 200.447 138.826 200.418 138.826 200.457C138.826 200.496 138.491 201.789 138.083 203.332C135.546 212.904 133.623 227.748 132.902 243.316L132.736 246.895C133.572 246.831 134.403 246.762 135.227 246.691C135.365 239.728 136.735 225.08 138.394 216.867C138.398 216.681 138.457 216.431 138.554 216.097C138.707 215.572 139.036 213.608 139.285 211.73C139.726 208.405 140.379 205.457 141.556 201.478L142.134 199.523L145.07 198.815C151.539 197.255 158.869 194.007 164.722 190.108C173.579 184.207 180.034 176.537 182.692 168.755C183.512 166.354 183.689 165.334 183.808 162.314C183.94 158.952 184.012 158.61 184.945 156.909C187.949 151.439 188.488 145.026 186.422 139.338C185.809 137.651 185.735 137.134 186.004 136.432C186.185 135.962 186.612 134.294 186.953 132.725C187.685 129.364 187.846 122.153 187.265 118.74C186.375 113.505 183.928 107.377 180.954 102.934C179.341 100.526 174.821 95.7057 172.997 94.4503L171.777 93.6108V50.6986L169.872 48.701C168.824 47.6024 164.848 43.3932 161.035 39.3473C157.224 35.3015 152.275 30.1336 150.04 27.8628L145.975 23.7344L119.198 23.7581C96.5419 23.7782 92.2297 23.8491 91.1771 24.2199ZM88.6555 30.5744C89.073 29.0812 90.3124 27.674 91.804 27.0002C92.9628 26.4763 94.3232 26.4516 118.269 26.5174L143.511 26.5867L143.586 36.3379C143.667 47.0001 143.787 47.8756 145.447 49.8756C145.927 50.4539 147.048 51.3279 147.938 51.8179L149.558 52.7084L168.845 53.0087L168.876 72.2997C168.892 82.9096 168.838 91.5889 168.754 91.5868C168.671 91.5847 167.544 91.2469 166.249 90.8362C161.809 89.428 158.739 90.012 156.005 92.7848C154.605 94.2041 154.174 94.8962 153.662 96.5421C152.877 99.0651 152.871 100.768 153.635 103.734C154.378 106.621 155.683 109.049 158.965 113.647C161.316 116.942 162.986 119.873 163.463 121.541C163.655 122.213 163.642 122.216 160.131 122.216C148.096 122.216 137.693 128.382 137.087 135.874C136.91 138.061 137.551 140.352 138.729 141.742L139.485 142.634L138.097 144.167C137.334 145.011 136.709 145.833 136.709 145.995C136.709 146.377 93.3942 146 92.1 145.607C90.8708 145.234 89.0092 143.304 88.638 142.018C88.2168 140.56 88.2341 32.0813 88.6555 30.5744ZM148.861 49.1802C146.516 47.6387 146.439 47.2712 146.329 37.1489C146.276 32.2476 146.303 28.2378 146.39 28.2378C146.566 28.2381 164.698 47.1523 166.297 49.0034L167.315 50.183L150.117 50.0062L148.861 49.1802ZM156.064 101.736C155.465 97.9308 156.93 94.5638 159.685 93.4106C160.101 93.2367 161.529 93.1385 162.859 93.1926C164.92 93.2766 165.591 93.4493 167.394 94.3584C175.941 98.6694 182.655 108.47 184.335 119.087C184.721 121.523 184.812 123.369 184.688 126.27C184.528 130.009 183.992 133.636 183.601 133.616C183.5 133.611 182.94 132.979 182.358 132.211C180.804 130.16 176.792 126.883 174.196 125.544C172.949 124.902 170.746 124.011 169.301 123.566C166.837 122.807 166.661 122.697 166.473 121.811C166.064 119.877 163.933 115.919 161.234 112.078C157.954 107.409 156.499 104.499 156.064 101.736ZM150.607 126.586C152.398 126.011 154.731 125.408 155.791 125.246C158.268 124.867 163.82 125.095 166.297 125.677C171.293 126.851 175.368 129.14 178.841 132.725C183.201 137.225 184.995 141.756 184.696 147.508C184.546 150.383 183.569 154.343 183.009 154.343C182.899 154.343 182.487 153.52 182.095 152.514C179.833 146.722 173.384 140.674 167.214 138.559C159.574 135.941 150.584 136.468 143.541 139.948C141.494 140.959 141.205 140.864 140.296 138.88C138.229 134.367 142.599 129.157 150.607 126.586Z" fill="#8996AD"/>
<path d="M91.5323 173.559C87.1276 195.597 83.827 216.793 81.3904 238.691C81.0111 242.1 80.6523 245.073 80.4692 246.364C89.4842 247.27 99.31 247.767 109.593 247.767C117.645 247.767 125.415 247.462 132.736 246.895L132.902 243.316C133.623 227.748 135.546 212.904 138.083 203.332C138.491 201.789 138.826 200.496 138.826 200.457C138.826 200.418 137.334 200.447 135.511 200.522L132.197 200.658L131.836 199.87C131.233 198.557 132.065 197.965 134.846 197.727C148.773 196.533 163.869 189.324 172.563 179.715C181.981 169.304 183.653 159.303 177.525 150.038C172.768 142.845 163.936 138.946 154.652 139.94C147.079 140.751 141.088 143.683 139.04 147.58C138.088 149.392 138.159 151.72 139.221 153.521C140.156 155.105 140.464 155.202 141.907 154.361C145.145 152.476 151.134 151.413 155.723 151.908C161.52 152.535 165.798 154.438 169.416 158C171.478 160.029 172.114 161.25 171.564 162.121C170.965 163.071 170.081 162.843 168.922 161.439C163.451 154.807 152.129 152.712 143.814 156.792C137.194 160.04 136.671 166.41 142.769 169.506C145.23 170.755 147.448 171.219 151.223 171.272C154.937 171.325 155.755 171.581 155.755 172.688C155.755 172.994 155.411 173.468 154.991 173.742C154.347 174.161 153.629 174.215 150.381 174.085C144.274 173.843 140.144 172.195 137.586 168.981C134.909 165.617 134.877 161.44 137.502 158.022L138.251 157.047L137.328 155.906C136.045 154.321 135.194 151.793 135.409 150.204L135.58 148.938H98.6338L98.165 149.839C96.2525 153.512 93.7512 162.457 91.5323 173.559Z" fill="#CED4DF"/>
<path d="M155.791 125.246C154.731 125.408 152.398 126.011 150.607 126.586C142.599 129.157 138.229 134.367 140.296 138.88C141.205 140.864 141.494 140.959 143.541 139.948C150.584 136.468 159.574 135.941 167.214 138.559C173.384 140.674 179.833 146.722 182.095 152.514C182.487 153.52 182.899 154.343 183.009 154.343C183.569 154.343 184.546 150.383 184.696 147.508C184.995 141.756 183.201 137.225 178.841 132.725C175.368 129.14 171.293 126.851 166.297 125.677C163.82 125.095 158.268 124.867 155.791 125.246Z" fill="#CED4DF"/>
<path fill-rule="evenodd" clip-rule="evenodd" d="M91.804 27.0002C90.3124 27.674 89.073 29.0812 88.6555 30.5744C88.2341 32.0813 88.2168 140.56 88.638 142.018C89.0092 143.304 90.8708 145.234 92.1 145.607C93.3942 146 136.709 146.377 136.709 145.995C136.709 145.833 137.334 145.011 138.097 144.167L139.485 142.634L138.729 141.742C137.551 140.352 136.91 138.061 137.087 135.874C137.693 128.382 148.096 122.216 160.131 122.216C163.642 122.216 163.655 122.213 163.463 121.541C162.986 119.873 161.316 116.942 158.965 113.647C155.683 109.049 154.378 106.621 153.635 103.734C152.871 100.768 152.877 99.0651 153.662 96.5421C154.174 94.8962 154.605 94.2041 156.005 92.7848C158.739 90.012 161.809 89.428 166.249 90.8362C167.544 91.2469 168.671 91.5847 168.754 91.5868C168.838 91.5889 168.892 82.9096 168.876 72.2997L168.845 53.0087L149.558 52.7084L147.938 51.8179C147.048 51.3279 145.927 50.4539 145.447 49.8756C143.787 47.8756 143.667 47.0001 143.586 36.3379L143.511 26.5867L118.269 26.5174C94.3232 26.4516 92.9628 26.4763 91.804 27.0002ZM146.329 37.1489C146.439 47.2712 146.516 47.6387 148.861 49.1802L150.117 50.0062L167.315 50.183L166.297 49.0034C164.698 47.1523 146.566 28.2381 146.39 28.2378C146.303 28.2378 146.276 32.2476 146.329 37.1489Z" fill="white"/>
<path d="M159.685 93.4106C156.93 94.5638 155.465 97.9308 156.064 101.736C156.499 104.499 157.954 107.409 161.234 112.078C163.933 115.919 166.064 119.877 166.473 121.811C166.661 122.697 166.837 122.807 169.301 123.566C170.746 124.011 172.949 124.902 174.196 125.544C176.792 126.883 180.804 130.16 182.358 132.211C182.94 132.979 183.5 133.611 183.601 133.616C183.992 133.636 184.528 130.009 184.688 126.27C184.812 123.369 184.721 121.523 184.335 119.087C182.655 108.47 175.941 98.6694 167.394 94.3584C165.591 93.4493 164.92 93.2766 162.859 93.1926C161.529 93.1385 160.101 93.2367 159.685 93.4106Z" fill="#CED4DF"/>
</g>
<path d="M35.1118 36.2402C38.8341 34.3192 43.4583 35.8752 45.4403 39.7156C45.6064 40.0373 45.7479 40.365 45.8669 40.6963L49.2996 38.9247C52.5143 37.2656 56.508 38.6094 58.2197 41.9262C59.9314 45.2429 58.713 49.2766 55.4983 50.9357L39.2616 59.3152C36.0469 60.9743 32.0532 59.6305 30.3415 56.3137C28.8388 53.402 29.5944 49.9378 31.9764 48.0127C31.7455 47.6922 31.535 47.3505 31.3481 46.9884C29.3661 43.148 30.7769 38.4774 34.4991 36.5564L35.1118 36.2402Z" fill="#D8DCE3"/>
<path d="M41.6862 44.629L44.9491 50.9513M40.9515 49.8541L44.9491 50.9513L46.3707 47.0573" stroke="#8996AD" stroke-width="1.87278" stroke-linecap="round" stroke-linejoin="round"/>
<path d="M239.464 69.8777C244.417 71.3346 247.214 76.6586 245.711 81.7692C245.585 82.1973 245.432 82.6099 245.256 83.0065L249.824 84.3501C254.102 85.6084 256.517 90.2064 255.219 94.6201C253.921 99.0337 249.401 101.592 245.123 100.333L223.516 93.9782C219.238 92.7199 216.823 88.1219 218.121 83.7082C219.261 79.8335 222.884 77.3892 226.646 77.7013C226.713 77.219 226.816 76.7352 226.958 76.2534C228.461 71.1428 233.695 68.1809 238.648 69.6379L239.464 69.8777Z" fill="#D8DCE3"/>
<path d="M238.645 82.4499L235.736 92.3404M232.645 87.1895L235.736 92.3404L241.123 89.683" stroke="#8996AD" stroke-width="2.36365" stroke-linecap="round" stroke-linejoin="round"/>
<path opacity="0.5" d="M30.1385 112.473L33.1923 126.9L47.4137 129.998L33.1923 133.096L30.1385 147.524L27.0846 133.096L12.8633 129.998L27.0846 126.9L30.1385 112.473Z" fill="#BBC3D1"/>
<path opacity="0.5" d="M76.9222 2.13477L77.7016 5.81659L81.3308 6.60722L77.7016 7.39785L76.9222 11.0797L76.1429 7.39785L72.5137 6.60722L76.1429 5.81659L76.9222 2.13477Z" fill="#BBC3D1"/>
<path opacity="0.5" d="M232.028 154.91L237.416 150.38L235.497 143.607L240.028 148.995L246.801 147.076L241.413 151.606L243.332 158.38L238.801 152.991L232.028 154.91Z" fill="#BBC3D1"/>
<path opacity="0.5" d="M191.129 26.3144L197.184 25.0141L198.484 18.9589L199.785 25.0141L205.84 26.3144L199.785 27.6147L198.484 33.6699L197.184 27.6147L191.129 26.3144Z" fill="#BBC3D1"/>
<path d="M128.307 66.1816V93.8917M116.784 82.9535L128.307 93.8917L139.83 82.9535M143.671 100.455H128.307H112.943" stroke="#8996AD" stroke-width="3.54548" stroke-linecap="round" stroke-linejoin="round"/>
</svg>
