<svg width="275" height="260" viewBox="0 0 275 260" fill="none" xmlns="http://www.w3.org/2000/svg">
<rect x="15.1797" y="59.0898" width="121.913" height="36.3468" rx="8.32948" fill="#CED4DF"/>
<path d="M10.6367 74.6013C10.6367 68.7269 15.3988 63.9648 21.2732 63.9648H121.914C127.788 63.9648 132.55 68.7269 132.55 74.6013V89.6752C132.55 95.5496 127.788 100.312 121.914 100.312H22.455C15.9279 100.312 10.6367 95.0204 10.6367 88.4934V74.6013Z" fill="#BBC3D1"/>
<rect x="15.1797" y="59.0898" width="121.913" height="36.3468" rx="8.32948" fill="#CED4DF"/>
<path d="M35.7002 66.5224C35.978 65.9595 36.7805 65.9595 37.0583 66.5224L39.7638 72.0042C39.8741 72.2277 40.0873 72.3826 40.3339 72.4185L46.3835 73.2975C47.0046 73.3878 47.2526 74.151 46.8032 74.5891L42.4257 78.8562C42.2472 79.0301 42.1658 79.2808 42.2079 79.5264L43.2413 85.5516C43.3474 86.1702 42.6981 86.6419 42.1426 86.3498L36.7316 83.5051C36.511 83.3892 36.2475 83.3892 36.0269 83.5051L30.616 86.3498C30.0604 86.6419 29.4112 86.1702 29.5173 85.5516L30.5507 79.5264C30.5928 79.2808 30.5114 79.0301 30.3329 78.8562L25.9553 74.5891C25.5059 74.151 25.7539 73.3878 26.375 73.2975L32.4246 72.4185C32.6713 72.3826 32.8845 72.2277 32.9948 72.0042L35.7002 66.5224Z" fill="#F3F4F6"/>
<path d="M62.2061 66.5224C62.4839 65.9595 63.2864 65.9595 63.5642 66.5224L66.2696 72.0042C66.3799 72.2277 66.5931 72.3826 66.8398 72.4185L72.8894 73.2975C73.5105 73.3878 73.7585 74.151 73.3091 74.5891L68.9315 78.8562C68.7531 79.0301 68.6716 79.2808 68.7137 79.5264L69.7471 85.5516C69.8532 86.1702 69.204 86.6419 68.6484 86.3498L63.2375 83.5051C63.0169 83.3892 62.7534 83.3892 62.5328 83.5051L57.1218 86.3498C56.5663 86.6419 55.917 86.1702 56.0231 85.5516L57.0565 79.5264C57.0987 79.2808 57.0172 79.0301 56.8388 78.8562L52.4612 74.5891C52.0118 74.151 52.2598 73.3878 52.8809 73.2975L58.9305 72.4185C59.1771 72.3826 59.3903 72.2277 59.5006 72.0042L62.2061 66.5224Z" fill="#F3F4F6"/>
<path d="M88.7081 66.5224C88.9858 65.9595 89.7884 65.9595 90.0661 66.5224L92.7716 72.0042C92.8819 72.2277 93.0951 72.3826 93.3417 72.4185L99.3914 73.2975C100.012 73.3878 100.26 74.151 99.811 74.5891L95.4335 78.8562C95.255 79.0301 95.1736 79.2808 95.2157 79.5264L96.2491 85.5516C96.3552 86.1702 95.7059 86.6419 95.1504 86.3498L89.7395 83.5051C89.5189 83.3892 89.2553 83.3892 89.0347 83.5051L83.6238 86.3498C83.0683 86.6419 82.419 86.1702 82.5251 85.5516L83.5585 79.5264C83.6006 79.2808 83.5192 79.0301 83.3407 78.8562L78.9632 74.5891C78.5137 74.151 78.7617 73.3878 79.3828 73.2975L85.4324 72.4185C85.6791 72.3826 85.8923 72.2277 86.0026 72.0042L88.7081 66.5224Z" fill="#F3F4F6"/>
<path d="M115.212 66.5224C115.49 65.9595 116.292 65.9595 116.57 66.5224L119.276 72.0042C119.386 72.2277 119.599 72.3826 119.846 72.4185L125.895 73.2975C126.516 73.3878 126.764 74.151 126.315 74.5891L121.937 78.8562C121.759 79.0301 121.677 79.2808 121.72 79.5264L122.753 85.5516C122.859 86.1702 122.21 86.6419 121.654 86.3498L116.243 83.5051C116.023 83.3892 115.759 83.3892 115.539 83.5051L110.128 86.3498C109.572 86.6419 108.923 86.1702 109.029 85.5516L110.062 79.5264C110.105 79.2808 110.023 79.0301 109.845 78.8562L105.467 74.5891C105.018 74.151 105.266 73.3878 105.887 73.2975L111.936 72.4185C112.183 72.3826 112.396 72.2277 112.506 72.0042L115.212 66.5224Z" fill="#F3F4F6"/>
<path fill-rule="evenodd" clip-rule="evenodd" d="M120.151 229.345C161.084 229.345 195.074 221.8 201.712 211.889C195.074 201.978 161.084 194.433 120.151 194.433C79.2179 194.433 45.2279 201.978 38.59 211.889C45.2279 221.8 79.2179 229.345 120.151 229.345Z" fill="#3A3D43"/>
<path d="M120.151 187.342C74.4576 187.342 37.416 196.745 37.416 208.344C37.416 209.552 37.818 210.736 38.59 211.889C45.2279 201.978 79.2179 194.433 120.151 194.433C161.084 194.433 195.074 201.978 201.712 211.889C202.483 210.736 202.885 209.552 202.885 208.344C202.885 196.745 165.844 187.342 120.151 187.342Z" fill="#B7BDC8"/>
<mask id="mask0_4886_19652" style="mask-type:alpha" maskUnits="userSpaceOnUse" x="6" y="4" width="252" height="226">
<path d="M125.829 6.49902C136.854 6.49902 150.511 10.8492 164.925 17.7227C179.297 24.5762 194.243 33.8514 207.796 43.5078C221.347 53.1635 233.462 63.1709 242.172 71.4648C246.531 75.6155 250.006 79.3072 252.377 82.291C253.564 83.785 254.445 85.0655 255.021 86.1094C255.462 86.9107 255.661 87.4647 255.737 87.8066L200.167 211.01C198.764 213.028 195.805 215.152 191.21 217.181C186.596 219.217 180.57 221.059 173.419 222.606C159.124 225.7 140.522 227.578 120.153 227.578C99.7841 227.578 81.1821 225.7 66.8867 222.606C59.7359 221.059 53.7104 219.217 49.0967 217.181C44.487 215.146 41.5222 213.015 40.125 210.991C40.1114 210.959 40.0948 210.919 40.0742 210.868C40.0002 210.687 39.8958 210.424 39.7627 210.078C39.4974 209.388 39.1279 208.402 38.668 207.158C37.7487 204.673 36.4766 201.179 34.9697 197.012C31.9562 188.678 28.0096 177.658 24.0869 166.637C20.1642 155.615 16.2665 144.593 13.3496 136.252C11.891 132.081 10.6787 128.584 9.83203 126.095C9.40838 124.849 9.0784 123.862 8.85547 123.172C8.74348 122.825 8.66229 122.564 8.61035 122.387C8.60745 122.377 8.60417 122.367 8.60156 122.358C8.64386 121.93 8.83802 121.144 9.30762 119.932C9.82339 118.6 10.6018 116.929 11.6318 114.954C13.6899 111.009 16.6984 105.961 20.4727 100.197C28.0185 88.6732 38.5655 74.3726 50.5352 60.4316C62.5109 46.4836 75.8683 32.9457 89.0322 22.9111C102.261 12.8269 115.014 6.49904 125.829 6.49902Z" fill="#CED4DF" stroke="#9096A2" stroke-width="3.54548" stroke-linecap="round"/>
</mask>
<g mask="url(#mask0_4886_19652)">
<path d="M87.1504 229.58C88.2576 205.495 95.0124 152.285 113.174 132.13C112.989 124.84 115.222 107.823 125.632 98.0778C138.644 85.8965 142.243 78.6986 142.243 71.5006C142.243 67.6546 142.778 57.6113 142.599 47.8996C143 45.5066 145.079 41.0398 150.188 42.317C155.297 43.5942 165.756 49.3739 165.756 71.5006C165.756 80.1899 160.131 89.1294 162.15 93.4568C164.955 93.6572 173.257 93.3847 184.028 90.6921C197.491 87.3263 212.637 88.4082 215.401 101.15C216.328 105.422 214.053 109.504 209.976 112.963C214.569 115.686 222.084 123.331 215.401 132.13C214.723 133.023 213.931 133.836 213.046 134.575C215.45 137.454 218.619 144.866 212.065 151.481C211.455 152.097 210.753 152.651 209.976 153.147C212.11 155.091 215.097 160.154 209.976 164.852C205.523 168.937 197.502 170.474 191.465 170.349C184.358 174.193 167.334 181.303 156.09 178.99C152.551 182.138 146.061 196.577 148.404 229.152L131.798 240.009L87.1504 229.58Z" fill="#CED4DF"/>
<path d="M189.458 100.109C168.899 100.337 159.549 118.412 172.693 122.289M209.976 112.963C214.053 109.504 216.328 105.422 215.401 101.15C212.637 88.4082 197.491 87.3263 184.028 90.6921C173.257 93.3847 164.955 93.6571 162.15 93.4568C160.131 89.1294 165.756 80.1899 165.756 71.5006C165.756 49.3739 155.297 43.5942 150.188 42.317C145.079 41.0398 143 45.5066 142.599 47.8996C142.778 57.6113 142.243 67.6546 142.243 71.5006C142.243 78.6986 138.644 85.8965 125.632 98.0778C115.222 107.823 112.989 124.84 113.174 132.13C95.0124 152.285 88.2576 205.495 87.1504 229.58L131.798 240.009L148.404 229.152C146.061 196.577 152.551 182.138 156.09 178.99C167.334 181.303 184.358 174.193 191.465 170.349M209.976 112.963C201.895 119.822 186.738 124.236 175.431 122.843C174.428 122.719 173.516 122.532 172.693 122.289M209.976 112.963C214.569 115.686 222.084 123.331 215.401 132.13C214.723 133.023 213.931 133.836 213.046 134.575M172.693 122.289C165.464 130.85 169.915 137.086 174.833 139.499M213.046 134.575C203.032 142.929 181.068 141.773 176.153 140.053C175.714 139.9 175.272 139.714 174.833 139.499M174.833 139.499C170.831 142.907 171.637 148.419 175.431 152.63C175.958 153.215 176.888 153.776 178.121 154.284C185.098 157.162 201.768 158.385 209.976 153.147C210.753 152.651 211.455 152.097 212.065 151.481C218.619 144.866 215.45 137.454 213.046 134.575M178.121 154.284C173.725 162.547 180.494 167.281 185.151 169.306C186.567 169.922 188.827 170.294 191.465 170.349C197.502 170.474 205.523 168.937 209.976 164.852C215.097 160.154 212.11 155.091 209.976 153.147M159.017 108.943C161.223 119.054 157.897 141.763 144.367 152.63" stroke="#8996AD" stroke-width="3.54548" stroke-linecap="round"/>
</g>
<circle opacity="0.3" cx="65.3233" cy="36.9815" r="5.59476" fill="#BBC3D1"/>
<circle opacity="0.5" cx="241.275" cy="74.1751" r="9.78054" fill="#BBC3D1"/>
<path opacity="0.5" d="M27.629 125.822L29.3592 133.996L37.4162 135.751L29.3592 137.507L27.629 145.68L25.8989 137.507L17.8418 135.751L25.8989 133.996L27.629 125.822Z" fill="#BBC3D1"/>
<path opacity="0.5" d="M239.867 164.17L249.079 162.192L251.057 152.98L253.035 162.192L262.246 164.17L253.035 166.148L251.057 175.359L249.079 166.148L239.867 164.17Z" fill="#BBC3D1"/>
</svg>
