<svg width="380" height="360" viewBox="0 0 380 360" fill="none" xmlns="http://www.w3.org/2000/svg">
<path d="M107.309 251.999C81.6932 238.614 36.1394 202.291 58.8471 164.076C87.2317 116.306 170.308 146.076 220.154 139.845C270 133.614 368.308 123.229 337.154 76.1519C312.231 38.4903 191.539 63.2288 134.308 80.3057" stroke="#CED4DF" stroke-width="4.15385" stroke-linecap="round" stroke-dasharray="12.46 12.46"/>
<path fill-rule="evenodd" clip-rule="evenodd" d="M187.134 317.559C243.81 317.559 290.873 307.111 300.064 293.389C290.873 279.667 243.81 269.219 187.134 269.219C130.458 269.219 83.3946 279.667 74.2037 293.389C83.3946 307.111 130.458 317.559 187.134 317.559Z" fill="#3A3D43"/>
<path d="M187.134 259.4C123.867 259.4 72.5781 272.42 72.5781 288.48C72.5781 290.153 73.1348 291.793 74.2037 293.389C83.3946 279.667 130.458 269.219 187.134 269.219C243.81 269.219 290.873 279.667 300.064 293.389C301.133 291.793 301.69 290.153 301.69 288.48C301.69 272.42 250.401 259.4 187.134 259.4Z" fill="#B7BDC8"/>
<mask id="mask0_4990_17395" style="mask-type:alpha" maskUnits="userSpaceOnUse" x="30" y="6" width="348" height="312">
<path d="M194.996 9.00293C210.262 9.00293 229.171 15.0269 249.128 24.5439C269.028 34.0335 289.724 46.8755 308.489 60.2461C327.253 73.6155 344.027 87.4711 356.087 98.9551C362.122 104.702 366.933 109.815 370.216 113.946C371.86 116.015 373.08 117.788 373.877 119.233C374.49 120.344 374.764 121.112 374.869 121.585L297.92 292.186C295.974 294.976 291.877 297.912 285.523 300.717C279.135 303.537 270.792 306.086 260.891 308.229C241.097 312.511 215.34 315.112 187.137 315.112C158.933 315.112 133.177 312.511 113.384 308.229C103.483 306.086 95.1393 303.537 88.751 300.717C82.3786 297.904 78.2744 294.959 76.3359 292.161C76.3161 292.115 76.2898 292.054 76.2578 291.976C76.1553 291.725 76.0125 291.36 75.8281 290.881C75.4607 289.925 74.9484 288.56 74.3115 286.838C73.0387 283.396 71.2769 278.559 69.1904 272.789C65.0179 261.25 59.5534 245.993 54.1221 230.732C48.6906 215.471 43.2936 200.21 39.2549 188.661C37.2353 182.886 35.5571 178.045 34.3848 174.598C33.7981 172.873 33.3419 171.506 33.0332 170.55C32.8781 170.069 32.7653 169.708 32.6934 169.463C32.6892 169.449 32.6854 169.435 32.6816 169.422C32.7406 168.829 33.0097 167.741 33.6592 166.064C34.3733 164.221 35.4498 161.906 36.876 159.172C39.7256 153.709 43.8922 146.72 49.1182 138.739C59.5662 122.783 74.1688 102.982 90.7422 83.6787C107.324 64.366 125.819 45.6216 144.046 31.7275C162.363 17.7646 180.022 9.00302 194.996 9.00293Z" fill="#CED4DF" stroke="#9096A2" stroke-width="4.90913" stroke-linecap="round"/>
</mask>
<g mask="url(#mask0_4990_17395)">
<path d="M201.664 116.312C223.182 116.312 240.625 133.756 240.625 155.273" stroke="#8996AD" stroke-width="5.53846" stroke-linecap="round"/>
<path d="M128.507 174.246C128.872 168.408 133.713 163.859 139.563 163.859H254.976C260.731 163.859 265.528 168.268 266.013 174.003L277.988 315.617C278.534 322.08 273.436 327.627 266.95 327.627H130.72C124.331 327.627 119.266 322.237 119.664 315.86L128.507 174.246Z" fill="#CED4DF" stroke="#8996AD" stroke-width="5.53846" stroke-linecap="round"/>
<path d="M107.838 174.003C108.323 168.268 113.12 163.859 118.875 163.859H234.288C240.138 163.859 244.979 168.408 245.344 174.246L254.186 315.86C254.585 322.237 249.52 327.627 243.131 327.627H106.901C100.415 327.627 95.3167 322.08 95.8632 315.617L107.838 174.003Z" fill="#CED4DF" stroke="#8996AD" stroke-width="5.53846" stroke-linecap="round"/>
<circle cx="136.738" cy="184.988" r="10.5657" fill="#8996AD"/>
<circle cx="159.189" cy="233.857" r="6.60355" fill="#8996AD"/>
<circle cx="193.529" cy="233.857" r="6.60355" fill="#8996AD"/>
<circle cx="214.659" cy="184.988" r="10.5657" fill="#8996AD"/>
<path d="M136.738 183.669V155.273C136.738 133.756 154.182 116.312 175.699 116.312C197.217 116.312 214.66 133.756 214.66 155.273V183.669" stroke="#8996AD" stroke-width="5.53846" stroke-linecap="round"/>
<path d="M160.672 268.195C162.564 261.359 169.238 256.309 177.181 256.309C185.123 256.309 191.797 261.359 193.69 268.195" stroke="#8996AD" stroke-width="5.53846" stroke-linecap="round"/>
</g>
<circle opacity="0.3" cx="90.4497" cy="51.2056" r="7.74659" fill="#BBC3D1"/>
<circle opacity="0.5" cx="345.851" cy="139.542" r="13.5423" fill="#BBC3D1"/>
<path opacity="0.5" d="M36.246 87.2588L33.3931 98.4698L42.3262 105.58L31.2449 102.83L24.094 111.924L26.947 100.712L18.0138 93.6019L29.0952 96.3523L36.246 87.2588Z" fill="#BBC3D1"/>
<path opacity="0.5" d="M332.125 227.312L344.879 224.573L347.618 211.818L350.357 224.573L363.111 227.312L350.357 230.05L347.618 242.805L344.879 230.05L332.125 227.312Z" fill="#BBC3D1"/>
<ellipse cx="117.987" cy="85.6597" rx="4.08164" ry="9.18369" transform="rotate(-107.548 117.987 85.6597)" fill="#CED4DF"/>
<path opacity="0.34" d="M111.35 84.5136C109.708 85.8178 108.86 87.2494 109.233 88.4299C109.656 89.7653 111.542 90.4651 114.069 90.4368C114.683 87.1996 112.512 85.1392 111.35 84.5136Z" fill="#8996AD"/>
<ellipse opacity="0.8" cx="119.869" cy="79.3046" rx="3.08242" ry="6.93544" transform="rotate(39.7147 119.869 79.3046)" fill="#CED4DF"/>
<ellipse opacity="0.8" cx="115.068" cy="79.5795" rx="3.08242" ry="6.93544" transform="rotate(-6.92601 115.068 79.5795)" fill="#CED4DF"/>
</svg>
