<svg width="20" height="20" viewBox="0 0 20 20" fill="none" xmlns="http://www.w3.org/2000/svg">
<path d="M5.87467 5.38504C6.10147 5.46487 6.34285 5.49469 6.58226 5.47245C6.82166 5.4502 7.05342 5.37642 7.26163 5.25617C7.46983 5.13592 7.64955 4.97204 7.78846 4.77579C7.92736 4.57953 8.02216 4.35555 8.06634 4.11921L8.33301 2.68587C9.42952 2.43609 10.5682 2.43609 11.6647 2.68587L11.933 4.11921C11.9772 4.35555 12.072 4.57953 12.2109 4.77579C12.3498 4.97204 12.5295 5.13592 12.7377 5.25617C12.9459 5.37642 13.1777 5.4502 13.4171 5.47245C13.6565 5.49469 13.8979 5.46487 14.1247 5.38504L15.4988 4.90171C16.2638 5.72569 16.8336 6.71109 17.1663 7.78504L16.058 8.73504C15.8755 8.89151 15.7289 9.08561 15.6285 9.30404C15.528 9.52246 15.476 9.76004 15.476 10.0005C15.476 10.2409 15.528 10.4785 15.6285 10.6969C15.7289 10.9153 15.8755 11.1094 16.058 11.2659L17.1663 12.215C16.8336 13.289 16.2638 14.2744 15.4988 15.0984L14.1238 14.615C13.897 14.5352 13.6557 14.5054 13.4163 14.5276C13.1769 14.5499 12.9451 14.6237 12.7369 14.7439C12.5287 14.8642 12.349 15.028 12.2101 15.2243C12.0712 15.4205 11.9764 15.6445 11.9322 15.8809L11.6663 17.3142C10.5698 17.564 9.43118 17.564 8.33467 17.3142L8.06634 15.8809C8.02216 15.6445 7.92736 15.4205 7.78846 15.2243C7.64955 15.028 7.46983 14.8642 7.26163 14.7439C7.05342 14.6237 6.82166 14.5499 6.58226 14.5276C6.34285 14.5054 6.10147 14.5352 5.87467 14.615L4.50051 15.0984C3.73559 14.2744 3.1657 13.289 2.83301 12.215L3.94134 11.265C4.12374 11.1086 4.27014 10.9145 4.37052 10.6962C4.47089 10.4778 4.52286 10.2404 4.52286 10C4.52286 9.75973 4.47089 9.52226 4.37052 9.30391C4.27014 9.08557 4.12374 8.89151 3.94134 8.73504L2.83301 7.78504C3.16546 6.71117 3.73505 5.72577 4.49967 4.90171L5.87467 5.38504ZM9.99967 7.50004C10.6627 7.50004 11.2986 7.76343 11.7674 8.23227C12.2363 8.70112 12.4997 9.337 12.4997 10C12.4997 10.6631 12.2363 11.299 11.7674 11.7678C11.2986 12.2366 10.6627 12.5 9.99967 12.5C9.33663 12.5 8.70075 12.2366 8.23191 11.7678C7.76307 11.299 7.49967 10.6631 7.49967 10C7.49967 9.337 7.76307 8.70112 8.23191 8.23227C8.70075 7.76343 9.33663 7.50004 9.99967 7.50004Z" stroke="white" stroke-width="1.5" stroke-linecap="round" stroke-linejoin="round"/>
</svg>
