<svg width="24" height="24" viewBox="0 0 24 24" fill="none" xmlns="http://www.w3.org/2000/svg">
<path d="M9.1114 9.0319H4.69177C4.0767 9.0319 3.76868 9.78042 4.20359 10.2182L7.59645 13.6334C7.73099 13.7688 7.80277 13.9526 7.79848 14.1407C7.79665 14.2212 7.76914 14.2983 7.7372 14.3723L5.71573 19.0553C5.68379 19.1293 5.65632 19.2065 5.65374 19.287C5.63618 19.8351 6.25917 20.2054 6.73578 19.8755L11.6089 17.2941C11.8445 17.1311 12.1555 17.1311 12.3911 17.2941L17.2642 19.8755C17.7408 20.2054 18.3638 19.8351 18.3463 19.287C18.3437 19.2065 18.3162 19.1293 18.2843 19.0553L16.2628 14.3723C16.2309 14.2983 16.2034 14.2212 16.2015 14.1407C16.1972 13.9526 16.269 13.7688 16.4036 13.6334L19.7964 10.2182C20.2313 9.78042 19.9233 9.0319 19.3082 9.0319H14.8886C14.6039 9.0319 14.3484 8.85595 14.2452 8.58885L12.6434 4.44305C12.4152 3.85232 11.5848 3.85232 11.3566 4.44305L9.75484 8.58885C9.65164 8.85595 9.39612 9.0319 9.1114 9.0319Z" stroke="black" stroke-width="1.5"/>
</svg>
