<svg width="275" height="260" viewBox="0 0 275 260" fill="none" xmlns="http://www.w3.org/2000/svg">
<path fill-rule="evenodd" clip-rule="evenodd" d="M120.151 229.345C161.084 229.345 195.074 221.8 201.712 211.889C195.074 201.978 161.084 194.433 120.151 194.433C79.2179 194.433 45.2279 201.978 38.59 211.889C45.2279 221.8 79.2179 229.345 120.151 229.345Z" fill="#3A3D43"/>
<path d="M120.151 187.342C74.4576 187.342 37.416 196.745 37.416 208.344C37.416 209.552 37.818 210.736 38.59 211.889C45.2279 201.978 79.2179 194.433 120.151 194.433C161.084 194.433 195.074 201.978 201.712 211.889C202.483 210.736 202.885 209.552 202.885 208.344C202.885 196.745 165.844 187.342 120.151 187.342Z" fill="#B7BDC8"/>
<mask id="mask0_4886_19603" style="mask-type:alpha" maskUnits="userSpaceOnUse" x="6" y="4" width="252" height="226">
<path d="M125.829 6.49902C136.854 6.49902 150.511 10.8492 164.925 17.7227C179.297 24.5762 194.243 33.8514 207.796 43.5078C221.347 53.1635 233.462 63.1709 242.172 71.4648C246.531 75.6155 250.006 79.3072 252.377 82.291C253.564 83.785 254.445 85.0655 255.021 86.1094C255.462 86.9107 255.661 87.4647 255.737 87.8066L200.167 211.01C198.764 213.028 195.805 215.152 191.21 217.181C186.596 219.217 180.57 221.059 173.419 222.606C159.124 225.7 140.522 227.578 120.153 227.578C99.7841 227.578 81.1821 225.7 66.8867 222.606C59.7359 221.059 53.7104 219.217 49.0967 217.181C44.487 215.146 41.5222 213.015 40.125 210.991C40.1114 210.959 40.0948 210.919 40.0742 210.868C40.0002 210.687 39.8958 210.424 39.7627 210.078C39.4974 209.388 39.1279 208.402 38.668 207.158C37.7487 204.673 36.4766 201.179 34.9697 197.012C31.9562 188.678 28.0096 177.658 24.0869 166.637C20.1642 155.615 16.2665 144.593 13.3496 136.252C11.891 132.081 10.6787 128.584 9.83203 126.095C9.40838 124.849 9.0784 123.862 8.85547 123.172C8.74348 122.825 8.66229 122.564 8.61035 122.387C8.60745 122.377 8.60417 122.367 8.60156 122.358C8.64386 121.93 8.83802 121.144 9.30762 119.932C9.82339 118.6 10.6018 116.929 11.6318 114.954C13.6899 111.009 16.6984 105.961 20.4727 100.197C28.0185 88.6732 38.5655 74.3726 50.5352 60.4316C62.5109 46.4836 75.8683 32.9457 89.0322 22.9111C102.261 12.8269 115.014 6.49904 125.829 6.49902Z" fill="#CED4DF" stroke="#9096A2" stroke-width="3.54548" stroke-linecap="round"/>
</mask>
<g mask="url(#mask0_4886_19603)">
<path fill-rule="evenodd" clip-rule="evenodd" d="M109.839 60.8715C105.715 62.0627 103.03 65.0478 101.965 69.6248C101.173 73.0267 101.717 76.1388 104.692 85.2198C106.546 90.8798 107.517 94.4998 107.517 95.7551C107.517 96.441 106.896 97.3064 104.603 99.8134C96.1656 109.041 88.2732 119.54 84.9136 126.005C81.1742 133.202 79.7789 139.817 80.3814 147.491C80.9282 154.454 82.641 161.103 86.8053 172.425C87.9579 175.559 87.9585 175.562 87.9415 180.039C87.9271 183.813 87.7978 185.059 87.1209 187.952C86.1812 191.966 82.5696 204.848 82.1396 205.719C81.9775 206.047 81.6565 207.055 81.4266 207.958C80.7434 210.642 79.7003 213.93 79.5322 213.93L70.918 245.618C72.1217 245.776 73.3421 245.926 74.5785 246.07C74.9794 244.592 75.4784 242.73 75.9887 240.805C79.1315 228.945 81.4902 220.362 84.2349 210.795C89.8689 191.158 91.04 186.258 91.3025 181.228C91.5178 177.106 91.0344 174.539 89.0042 169.022C84.7249 157.393 82.8548 147.676 83.6135 141.017C84.1973 135.894 84.9656 133.377 87.5165 128.232C92.4088 118.363 104.315 103.87 121.981 86.2781C138.615 69.714 144.378 65.5247 150.516 65.5351C153.803 65.5408 156.265 67.1479 157.203 69.9004C157.801 71.6556 157.805 72.689 157.221 74.9432C156.104 79.252 153.266 82.7206 140.371 95.5348C135.083 100.79 129.121 106.841 127.124 108.98C120.539 116.034 112.295 126.316 112.295 127.476C112.295 127.84 112.558 128.377 112.88 128.669C113.68 129.393 114.772 129.07 115.622 127.858C117.072 125.786 123.565 117.846 126.631 114.392C130.91 109.574 135.535 105.046 136.575 104.657C137.038 104.485 138.289 104.344 139.356 104.344C141.94 104.344 144.016 105.325 145.981 107.475C147.744 109.404 148.637 112.042 148.297 114.313C148.064 115.862 148.202 115.673 138.387 127.951C134.785 132.457 131.337 136.802 130.725 137.606C129.17 139.65 129.261 140.661 131.05 141.21C131.602 141.379 131.915 141.222 132.605 140.426C133.442 139.46 140.91 130.1 147.731 121.467C150.902 117.454 151.133 117.232 152.36 117.022C154.539 116.647 155.972 116.796 157.751 117.583C161.914 119.424 164.098 123.906 163.048 128.454C162.714 129.905 161.663 131.426 153.098 142.863C149.716 147.38 146.945 151.3 146.94 151.576C146.928 152.337 147.77 153.016 148.725 153.016C149.493 153.016 150.157 152.244 155.348 145.316C158.52 141.081 161.989 136.386 163.057 134.884C165.552 131.372 166.644 130.929 170.197 131.984C172.301 132.609 174.096 134.298 175.148 136.64C175.912 138.343 175.961 138.687 175.824 141.342C175.57 146.242 173.41 150.939 166.943 160.651L163.665 165.573L163.845 167.291C164.066 169.413 163.282 174.654 162.25 177.949C160.669 182.995 158.409 186.659 154.414 190.657C150.717 194.356 146.976 196.808 142.534 198.445C141.586 198.794 140.643 199.213 140.438 199.375C139.851 199.839 139.988 201.301 140.662 201.773C141.258 202.191 141.258 202.193 140.646 203.955C138.351 210.564 136.036 222.947 134.817 235.131C134.491 238.389 134.179 243.692 134.064 247.141L136.74 246.929C136.9 236.129 140.04 218.819 141.372 214.508L142.502 209.964C143.123 207.465 143.932 204.434 144.298 203.229L144.964 201.036L147.068 199.986C156.178 195.437 162.686 187.811 165.593 178.28C166.42 175.569 167.222 170.352 167.231 167.619C167.237 166.022 167.348 165.784 169.749 162.223C174.394 155.333 176.494 151.459 177.966 147.06C180.142 140.562 179.15 134.886 175.223 131.355C173.113 129.457 171.763 128.838 168.875 128.445L166.399 128.107L166.555 127.149C166.77 125.824 166.142 122.465 165.375 120.833C164.367 118.689 161.51 115.848 159.235 114.728C157.472 113.86 156.969 113.754 154.414 113.705L151.561 113.652L151.388 111.898C150.9 106.937 146.617 102.479 141.228 101.323C140.424 101.151 139.766 100.97 139.766 100.922C139.766 100.874 141.992 98.6345 144.713 95.9453C155.948 84.8424 159.496 80.0609 160.575 74.5675C161.022 72.2946 161.02 71.964 160.559 70.0885C159.703 66.602 157.531 64.0974 154.397 62.9809C149.692 61.3042 144.085 62.8071 137.875 67.4094C135.626 69.0762 130.583 73.3895 130.152 74.0151C129.883 74.406 129.936 74.4776 128.176 71.348C125.478 66.5533 122.545 63.593 118.629 61.7148C116.76 60.8178 116.089 60.6569 113.852 60.5679C112.236 60.5034 110.715 60.6186 109.839 60.8715ZM105.709 68.3282C106.756 65.9606 108.16 64.7576 110.951 63.8361C113.461 63.0075 116.753 63.8567 119.835 66.1278C122.142 67.8281 124.221 70.4856 126.009 74.0211L127.22 76.4174L118.936 84.8099C114.38 89.4257 110.576 93.2233 110.483 93.2487C110.39 93.2743 110.069 92.254 109.77 90.9811C109.472 89.7084 108.437 86.3154 107.472 83.4414C104.68 75.1265 104.267 71.5899 105.709 68.3282Z" fill="#8996AD"/>
<path d="M84.2349 210.795C81.4902 220.362 79.1315 228.945 75.9887 240.805C75.4784 242.73 74.9794 244.592 74.5785 246.07C85.3558 247.319 97.3431 248.016 109.977 248.016C118.344 248.016 126.428 247.71 134.064 247.141C134.179 243.692 134.491 238.389 134.817 235.131C136.036 222.947 138.351 210.564 140.646 203.955C141.258 202.193 141.258 202.191 140.662 201.773C139.988 201.301 139.851 199.839 140.438 199.375C140.643 199.213 141.586 198.794 142.534 198.445C146.976 196.808 150.717 194.356 154.414 190.657C158.409 186.659 160.669 182.995 162.25 177.949C163.282 174.654 164.066 169.413 163.845 167.291L163.665 165.573L166.943 160.651C173.41 150.939 175.57 146.242 175.824 141.342C175.961 138.687 175.912 138.343 175.148 136.64C174.096 134.298 172.301 132.609 170.197 131.984C166.644 130.929 165.552 131.372 163.057 134.884C161.989 136.386 158.52 141.081 155.348 145.316C150.157 152.244 149.493 153.016 148.725 153.016C147.77 153.016 146.928 152.337 146.94 151.576C146.945 151.3 149.716 147.38 153.098 142.863C161.663 131.426 162.714 129.905 163.048 128.454C164.098 123.906 161.914 119.424 157.751 117.583C155.972 116.796 154.539 116.647 152.36 117.022C151.133 117.232 150.902 117.454 147.731 121.467C140.91 130.1 133.442 139.46 132.605 140.426C131.915 141.222 131.602 141.379 131.05 141.21C129.261 140.661 129.17 139.65 130.725 137.606C131.337 136.802 134.785 132.457 138.387 127.951C148.202 115.673 148.064 115.862 148.297 114.313C148.637 112.042 147.744 109.404 145.981 107.475C144.016 105.325 141.94 104.344 139.356 104.344C138.289 104.344 137.038 104.485 136.575 104.657C135.535 105.046 130.91 109.574 126.631 114.392C123.565 117.846 117.072 125.786 115.622 127.858C114.772 129.07 113.68 129.393 112.88 128.669C112.558 128.377 112.295 127.84 112.295 127.476C112.295 126.316 120.539 116.034 127.124 108.98C129.121 106.841 135.083 100.79 140.371 95.5348C153.266 82.7206 156.104 79.252 157.221 74.9432C157.805 72.689 157.801 71.6556 157.203 69.9004C156.265 67.1479 153.803 65.5408 150.516 65.5351C144.378 65.5247 138.615 69.714 121.981 86.2781C104.315 103.87 92.4088 118.363 87.5165 128.232C84.9656 133.377 84.1973 135.894 83.6135 141.017C82.8548 147.676 84.7249 157.393 89.0042 169.022C91.0344 174.539 91.5178 177.106 91.3025 181.228C91.04 186.258 89.8689 191.158 84.2349 210.795Z" fill="#CED4DF"/>
<path d="M110.951 63.8361C108.16 64.7576 106.756 65.9606 105.709 68.3282C104.267 71.5899 104.68 75.1265 107.472 83.4414C108.437 86.3154 109.472 89.7084 109.77 90.9811C110.069 92.254 110.39 93.2743 110.483 93.2487C110.576 93.2233 114.38 89.4257 118.936 84.8099L127.22 76.4174L126.009 74.0211C124.221 70.4856 122.142 67.8281 119.835 66.1278C116.753 63.8567 113.461 63.0075 110.951 63.8361Z" fill="#CED4DF"/>
<path d="M122.13 23.6138C121.709 23.6884 120.506 24.1799 119.457 24.7058C113.441 27.7208 111.875 35.7926 115.797 43.5706C117.308 46.5685 120.28 50.5187 123.611 53.9559C125.482 55.8879 127.447 57.7362 127.976 58.0635C129.134 58.7786 129.684 58.6305 134.098 56.4176C143.27 51.8197 149.419 45.6691 150.995 39.5143C152.256 34.5919 150.089 29.4954 145.826 27.3595C142.471 25.6786 137.996 26.1379 134.739 28.4974L133.53 29.3729L132.476 27.9375C130.192 24.8249 125.751 22.9691 122.13 23.6138Z" fill="#8996AD"/>
</g>
<path fill-rule="evenodd" clip-rule="evenodd" d="M49.5744 34.1383C50.0208 33.7327 50.5479 33.3229 50.7458 33.2277C52.4484 32.4072 54.903 32.7105 56.4646 33.9343L57.1848 34.4987L57.6615 33.898C58.9467 32.2793 61.0974 31.4323 62.9905 31.7993C65.3957 32.2659 67.1742 34.4877 67.2318 37.0982C67.304 40.3622 65.1135 44.2573 61.2117 47.8028C59.3335 49.5093 59.0819 49.6588 58.4101 49.4652C58.1029 49.3765 56.8747 48.734 55.6809 48.0372C53.5569 46.7976 51.5391 45.2545 50.3758 43.9803C47.3579 40.6746 47.0149 36.4634 49.5744 34.1383Z" fill="#E4E6EA"/>
<path fill-rule="evenodd" clip-rule="evenodd" d="M206.433 110.212C207.148 110.163 207.941 110.169 208.195 110.226C210.386 110.716 212.45 112.807 213.003 115.098L213.258 116.154L214.145 115.946C216.535 115.385 219.163 116.18 220.656 117.916C222.553 120.123 222.574 123.503 220.704 125.978C218.367 129.073 213.456 131.088 207.209 131.517C204.202 131.723 203.857 131.677 203.374 131.002C203.153 130.693 202.482 129.189 201.883 127.661C200.817 124.941 200.074 122.016 199.929 119.972C199.552 114.669 202.335 110.493 206.433 110.212Z" fill="#E4E6EA"/>
<path fill-rule="evenodd" clip-rule="evenodd" d="M206.251 47.2061C206.682 46.8576 207.187 46.5095 207.373 46.4326C208.978 45.7698 211.213 46.1773 212.581 47.3821L213.212 47.9377L213.681 47.4119C214.945 45.9949 216.962 45.3314 218.679 45.7678C220.861 46.3225 222.375 48.454 222.29 50.8514C222.184 53.8489 219.97 57.306 216.204 60.3523C214.392 61.8185 214.153 61.9424 213.547 61.7294C213.27 61.6319 212.177 60.9779 211.119 60.2759C209.236 59.0269 207.467 57.5053 206.467 56.2753C203.873 53.0843 203.781 49.2038 206.251 47.2061Z" fill="#E4E6EA"/>
<path opacity="0.5" d="M51.3732 143.049L53.1033 151.223L61.1604 152.978L53.1033 154.733L51.3732 162.907L49.643 154.733L41.5859 152.978L49.643 151.223L51.3732 143.049Z" fill="#BBC3D1"/>
<path opacity="0.5" d="M239.867 152.977L249.079 150.998L251.057 141.787L253.035 150.998L262.246 152.977L253.035 154.955L251.057 164.166L249.079 154.955L239.867 152.977Z" fill="#BBC3D1"/>
<path opacity="0.5" d="M178.426 29.1167L184.224 27.8716L185.469 22.0733L186.714 27.8716L192.513 29.1167L186.714 30.3619L185.469 36.1602L184.224 30.3619L178.426 29.1167Z" fill="#BBC3D1"/>
<path opacity="0.5" d="M14.998 101.117L20.7963 99.8716L22.0415 94.0733L23.2866 99.8716L29.0849 101.117L23.2866 102.362L22.0415 108.16L20.7963 102.362L14.998 101.117Z" fill="#BBC3D1"/>
</svg>
