<svg width="30" height="30" viewBox="0 0 30 30" fill="none" xmlns="http://www.w3.org/2000/svg">
<rect x="4.40039" y="8.07137" width="21.004" height="21.2374" fill="#0041FF"/>
<path fill-rule="evenodd" clip-rule="evenodd" d="M17.7372 3.94897C16.1942 2.4059 13.6924 2.4059 12.1493 3.94897C11.1738 4.92446 10.6258 6.24752 10.6258 7.62708V11.3387C10.6258 11.9187 10.1556 12.3889 9.57559 12.3889C8.99558 12.3889 8.52539 11.9187 8.52539 11.3387V7.62708C8.52539 5.69046 9.29471 3.83316 10.6641 2.46376C13.0274 0.100438 16.8591 0.100438 19.2225 2.46376C20.5919 3.83316 21.3612 5.69046 21.3612 7.62708V11.3387C21.3612 11.9187 20.891 12.3889 20.311 12.3889C19.731 12.3889 19.2608 11.9187 19.2608 11.3387V7.62708C19.2608 6.24752 18.7127 4.92447 17.7372 3.94897Z" fill="black"/>
<rect x="4.40039" y="25.8081" width="21.004" height="3.50067" fill="black"/>
</svg>
